<?xml version="1.0" encoding="UTF-8"?>
<!DOCTYPE svg PUBLIC "-//W3C//DTD SVG 1.1//EN" "http://www.w3.org/Graphics/SVG/1.1/DTD/svg11.dtd">
<svg xmlns="http://www.w3.org/2000/svg" version="1.1" width="561px" height="179px" style="shape-rendering:geometricPrecision; text-rendering:geometricPrecision; image-rendering:optimizeQuality; fill-rule:evenodd; clip-rule:evenodd" xmlns:xlink="http://www.w3.org/1999/xlink">
<g><path style="opacity:0.9" fill="#ea2a2d" d="M 98.5,36.5 C 108.839,36.3335 119.172,36.5002 129.5,37C 144.901,38.0141 158.068,43.8474 169,54.5C 177.31,67.2304 177.643,80.2304 170,93.5C 156.117,112.863 137.95,126.863 115.5,135.5C 114.167,134.833 114.167,134.167 115.5,133.5C 133.527,124.306 147.027,110.639 156,92.5C 160.402,71.1412 152.235,56.9745 131.5,50C 109.603,43.2342 87.6032,42.9009 65.5,49C 56.3313,51.5048 47.3313,54.1715 38.5,57C 49.4416,50.4587 61.1083,45.4587 73.5,42C 81.9255,39.9509 90.2588,38.1176 98.5,36.5 Z"/></g>
<g><path style="opacity:0.788" fill="#000000" d="M 313.5,53.5 C 313.44,54.0431 313.107,54.3764 312.5,54.5C 295.88,49.3026 285.88,55.1359 282.5,72C 283.244,83.9107 289.577,89.7441 301.5,89.5C 305.176,89.5722 308.676,88.9056 312,87.5C 312.72,89.1124 312.554,90.6124 311.5,92C 287.974,97.4594 277.14,88.2927 279,64.5C 281.687,55.8142 287.521,50.6475 296.5,49C 301.861,48.3914 307.195,48.5581 312.5,49.5C 312.232,51.099 312.566,52.4324 313.5,53.5 Z"/></g>
<g><path style="opacity:0.782" fill="#000000" d="M 481.5,48.5 C 485.179,48.3626 488.679,49.0293 492,50.5C 492.667,51.8333 492.667,53.1667 492,54.5C 486.576,51.5035 481.409,51.8369 476.5,55.5C 475.147,58.2451 475.314,60.9117 477,63.5C 481.667,67.5 486.333,71.5 491,75.5C 495.778,83.6316 493.945,89.465 485.5,93C 480.162,93.8786 474.996,93.3786 470,91.5C 468.813,89.9556 468.48,88.2889 469,86.5C 475.429,90.3556 481.763,90.3556 488,86.5C 488.755,83.6967 488.422,81.0301 487,78.5C 481,73.8333 475.667,68.5 471,62.5C 469.42,53.9845 472.92,49.3178 481.5,48.5 Z"/></g>
<g><path style="opacity:0.8" fill="#000000" d="M 221.5,49.5 C 223.833,49.5 226.167,49.5 228.5,49.5C 233.071,63.8103 238.071,77.977 243.5,92C 241.527,92.4955 239.527,92.6621 237.5,92.5C 236.105,86.3137 234.105,80.3137 231.5,74.5C 225.833,73.1667 220.167,73.1667 214.5,74.5C 211.667,80.1667 208.833,85.8333 206,91.5C 204.186,92.7596 202.353,92.7596 200.5,91.5C 208.038,77.7568 215.038,63.7568 221.5,49.5 Z M 223.5,55.5 C 224.376,55.3691 225.043,55.7025 225.5,56.5C 226.878,60.8031 228.544,64.9698 230.5,69C 225.833,69.6667 221.167,69.6667 216.5,69C 219.093,64.5904 221.426,60.0904 223.5,55.5 Z"/></g>
<g><path style="opacity:0.799" fill="#000000" d="M 246.5,49.5 C 253.508,49.3337 260.508,49.5004 267.5,50C 270.057,50.6853 271.891,52.1853 273,54.5C 275.417,65.1745 271.251,71.3412 260.5,73C 264.833,79.3333 269.167,85.6667 273.5,92C 271.5,92.6667 269.5,92.6667 267.5,92C 262.891,84.3926 257.891,77.0592 252.5,70C 258.499,70.3347 263.666,68.5013 268,64.5C 270.416,59.8271 269.249,56.3271 264.5,54C 260.179,53.501 255.846,53.3343 251.5,53.5C 250.917,66.4921 250.584,79.4921 250.5,92.5C 248.833,92.5 247.167,92.5 245.5,92.5C 246.27,78.1801 246.604,63.8468 246.5,49.5 Z"/></g>
<g><path style="opacity:0.818" fill="#000000" d="M 313.5,53.5 C 313.5,52.1667 313.5,50.8333 313.5,49.5C 324.167,49.5 334.833,49.5 345.5,49.5C 345.5,50.8333 345.5,52.1667 345.5,53.5C 340.833,53.5 336.167,53.5 331.5,53.5C 331.2,66.5011 330.867,79.5011 330.5,92.5C 328.833,92.5 327.167,92.5 325.5,92.5C 325.936,79.478 326.602,66.478 327.5,53.5C 322.833,53.5 318.167,53.5 313.5,53.5 Z"/></g>
<g><path style="opacity:0.816" fill="#000000" d="M 349.5,49.5 C 351.604,49.2011 353.604,49.5344 355.5,50.5C 354.586,58.4524 353.919,66.4524 353.5,74.5C 352.499,84.1635 356.832,89.1635 366.5,89.5C 372.424,90.0458 376.59,87.7125 379,82.5C 380.867,71.6017 381.7,60.6017 381.5,49.5C 383.167,49.5 384.833,49.5 386.5,49.5C 386.257,61.2174 385.423,72.8841 384,84.5C 380.264,91.2864 374.431,94.2864 366.5,93.5C 354.901,94.0667 348.901,88.5667 348.5,77C 349.369,67.8545 349.702,58.6878 349.5,49.5 Z"/></g>
<g><path style="opacity:0.799" fill="#000000" d="M 394.5,49.5 C 401.508,49.3337 408.508,49.5004 415.5,50C 418.057,50.6853 419.891,52.1853 421,54.5C 423.417,65.1745 419.251,71.3412 408.5,73C 412.833,79.3333 417.167,85.6667 421.5,92C 419.5,92.6667 417.5,92.6667 415.5,92C 410.891,84.3926 405.891,77.0592 400.5,70C 406.499,70.3347 411.666,68.5013 416,64.5C 418.416,59.8271 417.249,56.3271 412.5,54C 408.179,53.501 403.846,53.3343 399.5,53.5C 398.917,66.4921 398.584,79.4921 398.5,92.5C 396.833,92.5 395.167,92.5 393.5,92.5C 394.27,78.1801 394.604,63.8468 394.5,49.5 Z"/></g>
<g><path style="opacity:0.816" fill="#000000" d="M 427.5,49.5 C 429.604,49.2011 431.604,49.5344 433.5,50.5C 432.586,58.4524 431.919,66.4524 431.5,74.5C 430.499,84.1635 434.832,89.1635 444.5,89.5C 450.424,90.0458 454.59,87.7125 457,82.5C 458.867,71.6017 459.7,60.6017 459.5,49.5C 461.167,49.5 462.833,49.5 464.5,49.5C 464.257,61.2174 463.423,72.8841 462,84.5C 458.264,91.2864 452.431,94.2864 444.5,93.5C 432.901,94.0667 426.901,88.5667 426.5,77C 427.369,67.8545 427.702,58.6878 427.5,49.5 Z"/></g>
<g><path style="opacity:0.854" fill="#ea2a2d" d="M 99.5,68.5 C 111.609,67.682 123.276,69.5153 134.5,74C 145.072,80.445 148.572,89.6117 145,101.5C 140.703,111.133 134.203,118.966 125.5,125C 119.715,128.308 113.882,131.475 108,134.5C 107.312,133.668 107.479,133.002 108.5,132.5C 119.583,126.584 127.749,117.917 133,106.5C 136.397,92.4653 131.23,82.9653 117.5,78C 104.592,73.8756 91.5924,73.5422 78.5,77C 71.5934,78.6395 64.9267,80.6395 58.5,83C 63.9422,78.9456 69.9422,75.9456 76.5,74C 84.1896,71.6594 91.8563,69.8261 99.5,68.5 Z"/></g>
<g><path style="opacity:0.832" fill="#ea2a2d" d="M 85.5,82.5 C 95.6474,81.9147 105.647,82.748 115.5,85C 126.049,88.9302 130.216,96.4302 128,107.5C 124.744,116.094 119.244,122.927 111.5,128C 107.081,130.627 102.581,133.127 98,135.5C 97.3333,134.833 97.3333,134.167 98,133.5C 109.464,127.875 116.631,118.875 119.5,106.5C 116.539,94.7235 108.873,88.5568 96.5,88C 90.8333,87.3333 85.1667,87.3333 79.5,88C 72.3621,89.5357 65.3621,91.2023 58.5,93C 67.014,87.9999 76.014,84.4999 85.5,82.5 Z"/></g>
<g><path style="opacity:0.73" fill="#1465b2" d="M 203.5,110.5 C 209.468,109.459 212.801,111.792 213.5,117.5C 212.167,117.5 210.833,117.5 209.5,117.5C 208.79,113.646 206.79,112.813 203.5,115C 199.085,119.575 199.585,123.408 205,126.5C 206.989,124.161 209.489,122.827 212.5,122.5C 211.079,128.218 207.412,130.384 201.5,129C 196.527,125.611 195.36,121.111 198,115.5C 199.406,113.256 201.239,111.59 203.5,110.5 Z"/></g>
<g><path style="opacity:0.724" fill="#1465b2" d="M 221.5,110.5 C 232.394,111.28 235.227,116.613 230,126.5C 226.163,129.667 221.996,130.167 217.5,128C 213.239,120.878 214.572,115.045 221.5,110.5 Z M 223.5,113.5 C 228.572,115.285 229.739,118.619 227,123.5C 223.055,127.3 220.222,126.467 218.5,121C 218.831,117.52 220.498,115.02 223.5,113.5 Z"/></g>
<g><path style="opacity:0.756" fill="#1465b2" d="M 236.5,110.5 C 237.978,110.238 239.311,110.571 240.5,111.5C 242,115.167 243.5,118.833 245,122.5C 245.644,118.779 246.477,115.113 247.5,111.5C 248.833,110.167 250.167,110.167 251.5,111.5C 250.294,116.864 248.961,122.197 247.5,127.5C 245.994,128.747 244.494,128.747 243,127.5C 241.667,124.167 240.333,120.833 239,117.5C 237.846,121.104 237.013,124.771 236.5,128.5C 235.022,128.762 233.689,128.429 232.5,127.5C 233.838,121.804 235.172,116.137 236.5,110.5 Z"/></g>
<g><path style="opacity:0.724" fill="#1465b2" d="M 256.5,110.5 C 259.32,110.248 261.986,110.748 264.5,112C 266.037,113.11 266.703,114.61 266.5,116.5C 263.685,115.781 261.018,114.948 258.5,114C 257.833,114.667 257.167,115.333 256.5,116C 259.121,117.595 261.787,119.095 264.5,120.5C 266.179,124.288 265.179,127.121 261.5,129C 255.831,130.833 252.165,129 250.5,123.5C 251.167,123.167 251.833,122.833 252.5,122.5C 254.17,123.995 256.003,125.328 258,126.5C 259.487,125.845 260.653,124.845 261.5,123.5C 259.584,121.683 257.251,120.516 254.5,120C 251.743,116.107 252.409,112.94 256.5,110.5 Z"/></g>
<g><path style="opacity:0.687" fill="#1465b2" d="M 268.5,110.5 C 273.5,110.5 278.5,110.5 283.5,110.5C 283.5,111.833 283.5,113.167 283.5,114.5C 281.5,114.5 279.5,114.5 277.5,114.5C 276.704,119.147 276.037,123.814 275.5,128.5C 274.167,128.5 272.833,128.5 271.5,128.5C 272.037,123.814 272.704,119.147 273.5,114.5C 271.833,114.5 270.167,114.5 268.5,114.5C 268.5,113.167 268.5,111.833 268.5,110.5 Z"/></g>
<g><path style="opacity:0.749" fill="#1465b2" d="M 288.5,110.5 C 290.144,110.286 291.644,110.62 293,111.5C 294.052,117.144 294.885,122.811 295.5,128.5C 294.167,128.5 292.833,128.5 291.5,128.5C 291.5,127.167 291.5,125.833 291.5,124.5C 289.076,124.192 286.743,124.526 284.5,125.5C 283.278,128.089 281.278,128.923 278.5,128C 282.489,122.519 285.822,116.685 288.5,110.5 Z M 289.5,115.5 C 290.461,117.265 290.795,119.265 290.5,121.5C 289.325,121.719 288.325,121.386 287.5,120.5C 288.456,118.925 289.123,117.258 289.5,115.5 Z"/></g>
<g><path style="opacity:0.753" fill="#1465b2" d="M 300.5,110.5 C 302.144,110.286 303.644,110.62 305,111.5C 306.333,114.833 307.667,118.167 309,121.5C 310.653,118.074 311.487,114.407 311.5,110.5C 312.833,110.5 314.167,110.5 315.5,110.5C 314.5,116.5 313.5,122.5 312.5,128.5C 310.712,128.785 309.045,128.452 307.5,127.5C 303.503,115.176 301.503,115.509 301.5,128.5C 300.167,128.5 298.833,128.5 297.5,128.5C 298.499,122.504 299.499,116.504 300.5,110.5 Z"/></g>
<g><path style="opacity:0.687" fill="#1465b2" d="M 316.5,110.5 C 321.5,110.5 326.5,110.5 331.5,110.5C 331.5,111.833 331.5,113.167 331.5,114.5C 329.5,114.5 327.5,114.5 325.5,114.5C 324.704,119.147 324.037,123.814 323.5,128.5C 322.167,128.5 320.833,128.5 319.5,128.5C 320.037,123.814 320.704,119.147 321.5,114.5C 319.833,114.5 318.167,114.5 316.5,114.5C 316.5,113.167 316.5,111.833 316.5,110.5 Z"/></g>
<g><path style="opacity:0.728" fill="#1465b2" d="M 340.5,110.5 C 341.833,110.5 343.167,110.5 344.5,110.5C 343.499,116.504 342.499,122.504 341.5,128.5C 340.167,128.5 338.833,128.5 337.5,128.5C 338.5,122.5 339.5,116.5 340.5,110.5 Z"/></g>
<g><path style="opacity:0.756" fill="#1465b2" d="M 348.5,110.5 C 349.978,110.238 351.311,110.571 352.5,111.5C 354,115.167 355.5,118.833 357,122.5C 357.644,118.779 358.477,115.113 359.5,111.5C 360.833,110.167 362.167,110.167 363.5,111.5C 362.294,116.864 360.961,122.197 359.5,127.5C 357.994,128.747 356.494,128.747 355,127.5C 353.667,124.167 352.333,120.833 351,117.5C 349.846,121.104 349.013,124.771 348.5,128.5C 347.022,128.762 345.689,128.429 344.5,127.5C 345.838,121.804 347.172,116.137 348.5,110.5 Z"/></g>
<g><path style="opacity:0.756" fill="#1465b2" d="M 366.5,110.5 C 367.978,110.238 369.311,110.571 370.5,111.5C 372,115.167 373.5,118.833 375,122.5C 375.644,118.779 376.477,115.113 377.5,111.5C 378.833,110.167 380.167,110.167 381.5,111.5C 380.294,116.864 378.961,122.197 377.5,127.5C 375.994,128.747 374.494,128.747 373,127.5C 371.667,124.167 370.333,120.833 369,117.5C 367.846,121.104 367.013,124.771 366.5,128.5C 365.022,128.762 363.689,128.429 362.5,127.5C 363.838,121.804 365.172,116.137 366.5,110.5 Z"/></g>
<g><path style="opacity:0.724" fill="#1465b2" d="M 387.5,110.5 C 398.394,111.28 401.227,116.613 396,126.5C 392.163,129.667 387.996,130.167 383.5,128C 379.239,120.878 380.572,115.045 387.5,110.5 Z M 389.5,113.5 C 394.572,115.285 395.739,118.619 393,123.5C 389.055,127.3 386.222,126.467 384.5,121C 384.831,117.52 386.498,115.02 389.5,113.5 Z"/></g>
<g><path style="opacity:0.726" fill="#1465b2" d="M 400.5,110.5 C 401.833,110.5 403.167,110.5 404.5,110.5C 405.035,114.819 405.535,119.152 406,123.5C 408,119.5 410,115.5 412,111.5C 413.494,110.253 414.994,110.253 416.5,111.5C 413.465,116.708 410.632,122.041 408,127.5C 406.301,128.406 404.467,128.739 402.5,128.5C 402.161,122.456 401.494,116.456 400.5,110.5 Z"/></g>
<g><path style="opacity:0.764" fill="#1465b2" d="M 422.5,110.5 C 423.833,110.5 425.167,110.5 426.5,110.5C 427.177,116.227 428.177,121.894 429.5,127.5C 428.311,128.429 426.978,128.762 425.5,128.5C 425.845,125.512 424.512,124.179 421.5,124.5C 418.876,124.289 417.21,125.456 416.5,128C 415.056,128.781 413.723,128.614 412.5,127.5C 416.097,121.97 419.43,116.304 422.5,110.5 Z M 422.5,116.5 C 423.931,117.78 424.598,119.447 424.5,121.5C 423.127,121.657 421.793,121.49 420.5,121C 421.582,119.67 422.249,118.17 422.5,116.5 Z"/></g>
<g><path style="opacity:0.687" fill="#1465b2" d="M 430.5,110.5 C 435.5,110.5 440.5,110.5 445.5,110.5C 445.5,111.833 445.5,113.167 445.5,114.5C 443.5,114.5 441.5,114.5 439.5,114.5C 438.704,119.147 438.037,123.814 437.5,128.5C 436.167,128.5 434.833,128.5 433.5,128.5C 434.037,123.814 434.704,119.147 435.5,114.5C 433.833,114.5 432.167,114.5 430.5,114.5C 430.5,113.167 430.5,111.833 430.5,110.5 Z"/></g>
<g><path style="opacity:0.728" fill="#1465b2" d="M 447.5,110.5 C 448.833,110.5 450.167,110.5 451.5,110.5C 450.499,116.504 449.499,122.504 448.5,128.5C 447.167,128.5 445.833,128.5 444.5,128.5C 445.5,122.5 446.5,116.5 447.5,110.5 Z"/></g>
<g><path style="opacity:0.75" fill="#1465b2" d="M 459.5,110.5 C 469.424,111.18 472.257,116.18 468,125.5C 463,130.833 458,130.833 453,125.5C 450.885,118.414 453.051,113.414 459.5,110.5 Z M 461.5,113.5 C 467.053,115.973 467.887,119.64 464,124.5C 459.708,127.271 457.208,126.105 456.5,121C 456.348,117.102 458.015,114.602 461.5,113.5 Z"/></g>
<g><path style="opacity:0.753" fill="#1465b2" d="M 473.5,110.5 C 475.144,110.286 476.644,110.62 478,111.5C 479.333,114.833 480.667,118.167 482,121.5C 483.653,118.074 484.487,114.407 484.5,110.5C 485.833,110.5 487.167,110.5 488.5,110.5C 487.5,116.5 486.5,122.5 485.5,128.5C 483.712,128.785 482.045,128.452 480.5,127.5C 476.503,115.176 474.503,115.509 474.5,128.5C 473.167,128.5 471.833,128.5 470.5,128.5C 471.499,122.504 472.499,116.504 473.5,110.5 Z"/></g>
</svg>
