<?xml version="1.0" encoding="UTF-8"?>
<!DOCTYPE svg PUBLIC "-//W3C//DTD SVG 1.1//EN" "http://www.w3.org/Graphics/SVG/1.1/DTD/svg11.dtd">
<svg xmlns="http://www.w3.org/2000/svg" version="1.1" width="260px" height="84px" style="shape-rendering:geometricPrecision; text-rendering:geometricPrecision; image-rendering:optimizeQuality; fill-rule:evenodd; clip-rule:evenodd" xmlns:xlink="http://www.w3.org/1999/xlink">
<g><path style="opacity:1" fill="#fdfdfd" d="M -0.5,-0.5 C 86.1667,-0.5 172.833,-0.5 259.5,-0.5C 259.5,27.5 259.5,55.5 259.5,83.5C 172.833,83.5 86.1667,83.5 -0.5,83.5C -0.5,55.5 -0.5,27.5 -0.5,-0.5 Z"/></g>
<g><path style="opacity:1" fill="#5cbe71" d="M 23.5,19.5 C 26.6248,18.5206 29.9581,18.1872 33.5,18.5C 33.7366,21.6473 34.5699,24.6473 36,27.5C 40.8333,37.8333 45.6667,48.1667 50.5,58.5C 51.0253,59.1924 51.6919,59.6924 52.5,60C 49.5184,60.498 46.5184,60.6646 43.5,60.5C 43.2631,56.2895 41.9298,52.4562 39.5,49C 32.1667,48.3333 24.8333,48.3333 17.5,49C 15.2109,52.502 14.2109,56.1687 14.5,60C 11.5,60.6667 8.5,60.6667 5.5,60C 6.41623,59.6258 7.24956,59.1258 8,58.5C 13.2249,45.7166 18.7249,33.05 24.5,20.5C 24.3764,19.8933 24.0431,19.56 23.5,19.5 Z"/></g>
<g><path style="opacity:1" fill="#5abd6f" d="M 58.5,19.5 C 60.9664,18.3659 63.633,18.1993 66.5,19C 65.1667,32.6667 65.1667,46.3333 66.5,60C 63.8333,60.6667 61.1667,60.6667 58.5,60C 59.8299,46.4021 59.8299,32.9021 58.5,19.5 Z"/></g>
<g><path style="opacity:1" fill="#59bd6f" d="M 141.5,46.5 C 142.564,52.2039 140.564,56.3706 135.5,59C 123.887,60.3872 112.221,60.8872 100.5,60.5C 101.825,46.6666 101.825,32.8333 100.5,19C 111.931,18.0448 123.264,18.3781 134.5,20C 142.455,26.2075 142.455,32.3742 134.5,38.5C 138.275,39.9399 140.609,42.6066 141.5,46.5 Z"/></g>
<g><path style="opacity:1" fill="#5dbe72" d="M 197.5,36.5 C 197.181,52.152 189.181,60.152 173.5,60.5C 157.819,60.152 149.819,52.152 149.5,36.5C 152.896,24.4568 160.896,18.1234 173.5,17.5C 186.261,17.9375 194.261,24.2708 197.5,36.5 Z"/></g>
<g><path style="opacity:1" fill="#5dbe71" d="M 207.5,18.5 C 209.857,18.3367 212.19,18.5034 214.5,19C 213.845,24.0872 213.512,29.2539 213.5,34.5C 210.667,53.1679 218.333,60.0012 236.5,55C 238.329,54.7265 239.829,53.8932 241,52.5C 242.099,46.5786 242.599,40.5786 242.5,34.5C 242.488,29.2539 242.155,24.0872 241.5,19C 244.167,18.3333 246.833,18.3333 249.5,19C 248.679,29.4234 248.179,39.9234 248,50.5C 245.96,55.8761 242.127,59.0428 236.5,60C 230.5,60.6667 224.5,60.6667 218.5,60C 213.026,58.5265 209.526,55.0265 208,49.5C 207.5,39.172 207.334,28.8387 207.5,18.5 Z"/></g>
<g><path style="opacity:1" fill="#f4f8f5" d="M 107.5,23.5 C 115.174,23.3336 122.841,23.5003 130.5,24C 134.213,25.6912 135.379,28.5245 134,32.5C 132.421,34.0412 130.587,35.2078 128.5,36C 121.508,36.4996 114.508,36.6663 107.5,36.5C 107.5,32.1667 107.5,27.8333 107.5,23.5 Z"/></g>
<g><path style="opacity:1" fill="#fcfdfc" d="M 189.5,46.5 C 188.817,50.0198 186.817,52.5198 183.5,54C 175.13,57.8073 167.297,56.974 160,51.5C 158.906,49.9221 158.072,48.2554 157.5,46.5C 157.184,31.6677 164.517,25.501 179.5,28C 187.982,31.4668 191.315,37.6334 189.5,46.5 Z"/></g>
<g><path style="opacity:1" fill="#ebefeb" d="M 189.5,46.5 C 191.315,37.6334 187.982,31.4668 179.5,28C 164.517,25.501 157.184,31.6677 157.5,46.5C 153.262,32.3376 158.596,24.3376 173.5,22.5C 184.722,22.7586 190.722,28.4253 191.5,39.5C 191.684,42.2046 191.017,44.5379 189.5,46.5 Z"/></g>
<g><path style="opacity:1" fill="#f1f3f1" d="M 27.5,23.5 C 31.1866,29.7042 34.5199,36.2042 37.5,43C 31.5,43.6667 25.5,43.6667 19.5,43C 22.4616,36.6138 25.1283,30.1138 27.5,23.5 Z"/></g>
<g><path style="opacity:1" fill="#f9faf9" d="M 107.5,41.5 C 115.174,41.3336 122.841,41.5003 130.5,42C 134,42.4983 135.667,44.4983 135.5,48C 135.717,51.2351 134.383,53.5684 131.5,55C 123.507,55.4997 115.507,55.6664 107.5,55.5C 107.5,50.8333 107.5,46.1667 107.5,41.5 Z"/></g>
<g><path style="opacity:1" fill="#eaecea" d="M 141.5,46.5 C 144.807,54.3896 142.474,60.2229 134.5,64C 123.5,64.6667 112.5,64.6667 101.5,64C 100.663,62.9887 100.33,61.8221 100.5,60.5C 112.221,60.8872 123.887,60.3872 135.5,59C 140.564,56.3706 142.564,52.2039 141.5,46.5 Z"/></g>
<g><path style="opacity:1" fill="#edf0ed" d="M 149.5,36.5 C 149.819,52.152 157.819,60.152 173.5,60.5C 189.181,60.152 197.181,52.152 197.5,36.5C 199.965,54.3975 191.965,64.0642 173.5,65.5C 155.035,64.0642 147.035,54.3975 149.5,36.5 Z"/></g>
</svg>
